%TF.GenerationSoftware,KiCad,Pcbnew,7.0.6*%
%TF.CreationDate,2024-02-09T06:01:19-06:00*%
%TF.ProjectId,BPS-LeaderDaughter,4250532d-4c65-4616-9465-724461756768,rev?*%
%TF.SameCoordinates,Original*%
%TF.FileFunction,Soldermask,Bot*%
%TF.FilePolarity,Negative*%
%FSLAX46Y46*%
G04 Gerber Fmt 4.6, Leading zero omitted, Abs format (unit mm)*
G04 Created by KiCad (PCBNEW 7.0.6) date 2024-02-09 06:01:19*
%MOMM*%
%LPD*%
G01*
G04 APERTURE LIST*
G04 Aperture macros list*
%AMRoundRect*
0 Rectangle with rounded corners*
0 $1 Rounding radius*
0 $2 $3 $4 $5 $6 $7 $8 $9 X,Y pos of 4 corners*
0 Add a 4 corners polygon primitive as box body*
4,1,4,$2,$3,$4,$5,$6,$7,$8,$9,$2,$3,0*
0 Add four circle primitives for the rounded corners*
1,1,$1+$1,$2,$3*
1,1,$1+$1,$4,$5*
1,1,$1+$1,$6,$7*
1,1,$1+$1,$8,$9*
0 Add four rect primitives between the rounded corners*
20,1,$1+$1,$2,$3,$4,$5,0*
20,1,$1+$1,$4,$5,$6,$7,0*
20,1,$1+$1,$6,$7,$8,$9,0*
20,1,$1+$1,$8,$9,$2,$3,0*%
%AMFreePoly0*
4,1,43,1.580355,1.210355,1.595000,1.175000,1.595000,0.775000,1.580355,0.739645,1.545000,0.724999,0.975001,0.725000,0.975001,0.575000,1.545000,0.574999,1.580355,0.560355,1.595000,0.525000,1.595000,0.125000,1.580355,0.089645,1.545000,0.075000,0.975000,0.075000,0.975000,-0.075000,1.545000,-0.075000,1.580355,-0.089645,1.595000,-0.125000,1.595000,-0.525000,1.580355,-0.560355,
1.545000,-0.574999,0.975001,-0.575000,0.975001,-0.725000,1.545000,-0.724999,1.580355,-0.739645,1.595000,-0.775000,1.595000,-1.175000,1.580355,-1.210355,1.545000,-1.225000,0.925000,-1.225000,0.889645,-1.210355,0.875000,-1.175000,-0.925000,-1.175000,-0.960355,-1.160354,-0.975000,-1.125000,-0.975000,1.125000,-0.960355,1.160354,-0.925000,1.175000,0.875000,1.175000,0.889645,1.210355,
0.925000,1.225000,1.545000,1.225000,1.580355,1.210355,1.580355,1.210355,$1*%
G04 Aperture macros list end*
%ADD10C,1.270000*%
%ADD11C,1.700000*%
%ADD12C,3.000000*%
%ADD13R,1.700000X1.700000*%
%ADD14O,1.700000X1.700000*%
%ADD15RoundRect,0.250001X0.499999X0.759999X-0.499999X0.759999X-0.499999X-0.759999X0.499999X-0.759999X0*%
%ADD16O,1.500000X2.020000*%
%ADD17RoundRect,0.225000X-0.375000X0.225000X-0.375000X-0.225000X0.375000X-0.225000X0.375000X0.225000X0*%
%ADD18RoundRect,0.250000X-0.132583X0.503814X-0.503814X0.132583X0.132583X-0.503814X0.503814X-0.132583X0*%
%ADD19RoundRect,0.050000X-0.152028X-0.434871X0.434871X0.152028X0.152028X0.434871X-0.434871X-0.152028X0*%
%ADD20FreePoly0,45.000000*%
%ADD21RoundRect,0.250000X-0.262500X-0.450000X0.262500X-0.450000X0.262500X0.450000X-0.262500X0.450000X0*%
%ADD22RoundRect,0.250000X-0.450000X0.262500X-0.450000X-0.262500X0.450000X-0.262500X0.450000X0.262500X0*%
%ADD23RoundRect,0.225000X-0.424264X-0.106066X-0.106066X-0.424264X0.424264X0.106066X0.106066X0.424264X0*%
%ADD24RoundRect,0.250000X0.262500X0.450000X-0.262500X0.450000X-0.262500X-0.450000X0.262500X-0.450000X0*%
%ADD25RoundRect,0.050000X-0.434871X0.152028X0.152028X-0.434871X0.434871X-0.152028X-0.152028X0.434871X0*%
%ADD26FreePoly0,315.000000*%
%ADD27RoundRect,0.250000X0.450000X-0.262500X0.450000X0.262500X-0.450000X0.262500X-0.450000X-0.262500X0*%
%ADD28RoundRect,0.250000X-0.503814X-0.132583X-0.132583X-0.503814X0.503814X0.132583X0.132583X0.503814X0*%
%ADD29R,1.600000X0.410000*%
%ADD30RoundRect,0.050000X0.200000X-0.415000X0.200000X0.415000X-0.200000X0.415000X-0.200000X-0.415000X0*%
%ADD31FreePoly0,90.000000*%
%ADD32RoundRect,0.150000X0.521491X-0.309359X-0.309359X0.521491X-0.521491X0.309359X0.309359X-0.521491X0*%
%ADD33RoundRect,0.150000X-0.150000X0.662500X-0.150000X-0.662500X0.150000X-0.662500X0.150000X0.662500X0*%
%ADD34RoundRect,0.250000X0.503814X0.132583X0.132583X0.503814X-0.503814X-0.132583X-0.132583X-0.503814X0*%
%ADD35RoundRect,0.250000X0.132583X-0.503814X0.503814X-0.132583X-0.132583X0.503814X-0.503814X0.132583X0*%
%ADD36RoundRect,0.112500X-0.112500X0.187500X-0.112500X-0.187500X0.112500X-0.187500X0.112500X0.187500X0*%
%ADD37RoundRect,0.225000X-0.106066X0.424264X-0.424264X0.106066X0.106066X-0.424264X0.424264X-0.106066X0*%
%ADD38RoundRect,0.150000X0.150000X-0.587500X0.150000X0.587500X-0.150000X0.587500X-0.150000X-0.587500X0*%
%ADD39RoundRect,0.250000X0.250000X0.475000X-0.250000X0.475000X-0.250000X-0.475000X0.250000X-0.475000X0*%
%ADD40RoundRect,0.150000X-0.309359X-0.521491X0.521491X0.309359X0.309359X0.521491X-0.521491X-0.309359X0*%
%ADD41RoundRect,0.050000X-0.415000X-0.200000X0.415000X-0.200000X0.415000X0.200000X-0.415000X0.200000X0*%
%ADD42FreePoly0,0.000000*%
G04 APERTURE END LIST*
D10*
%TO.C,J6*%
X172962281Y-75388322D03*
X162355679Y-64781720D03*
D11*
X172226890Y-71881072D03*
X170105570Y-69759752D03*
X167984249Y-67638431D03*
X165862929Y-65517111D03*
%TD*%
D12*
%TO.C,MH6*%
X131150000Y-117720000D03*
%TD*%
D13*
%TO.C,JP3*%
X150019000Y-45260200D03*
D14*
X150019000Y-42720200D03*
%TD*%
D10*
%TO.C,J7*%
X159646000Y-74146000D03*
X144646000Y-74146000D03*
D11*
X156646000Y-72186000D03*
X153646000Y-72186000D03*
X150646000Y-72186000D03*
X147646000Y-72186000D03*
%TD*%
D12*
%TO.C,MH4*%
X173600000Y-152100000D03*
%TD*%
D10*
%TO.C,J5*%
X141936322Y-64781720D03*
X131329720Y-75388322D03*
D11*
X138429072Y-65517111D03*
X136307752Y-67638431D03*
X134186431Y-69759752D03*
X132065111Y-71881072D03*
%TD*%
D13*
%TO.C,JP7*%
X144526000Y-52921321D03*
D14*
X144526000Y-55461321D03*
%TD*%
D13*
%TO.C,JP1*%
X150019000Y-37640200D03*
D14*
X150019000Y-35100200D03*
%TD*%
D13*
%TO.C,JP8*%
X159512000Y-52842818D03*
D14*
X159512000Y-55382818D03*
%TD*%
D10*
%TO.C,J11*%
X141936322Y-48361041D03*
X131329720Y-58967643D03*
D11*
X138429072Y-49096432D03*
X136307752Y-51217752D03*
X134186431Y-53339073D03*
X132065111Y-55460393D03*
%TD*%
D13*
%TO.C,JP5*%
X144526000Y-37935321D03*
D14*
X144526000Y-40475321D03*
%TD*%
D10*
%TO.C,J3*%
X139398000Y-84510000D03*
X130398000Y-84510000D03*
D11*
X136398000Y-82550000D03*
X133398000Y-82550000D03*
%TD*%
D10*
%TO.C,J10*%
X172962281Y-44146322D03*
X162355679Y-33539720D03*
D11*
X172226890Y-40639072D03*
X170105570Y-38517752D03*
X167984249Y-36396431D03*
X165862929Y-34275111D03*
%TD*%
D12*
%TO.C,MH2*%
X130600000Y-29100000D03*
%TD*%
D10*
%TO.C,J9*%
X141936322Y-33375041D03*
X131329720Y-43981643D03*
D11*
X138429072Y-34110432D03*
X136307752Y-36231752D03*
X134186431Y-38353073D03*
X132065111Y-40474393D03*
%TD*%
D12*
%TO.C,MH1*%
X173600000Y-29100000D03*
%TD*%
%TO.C,MH3*%
X130600000Y-152100000D03*
%TD*%
%TO.C,MH5*%
X171650000Y-117720000D03*
%TD*%
D10*
%TO.C,J12*%
X172962281Y-59132322D03*
X162355679Y-48525720D03*
D11*
X172226890Y-55625072D03*
X170105570Y-53503752D03*
X167984249Y-51382431D03*
X165862929Y-49261111D03*
%TD*%
D13*
%TO.C,JP2*%
X154083000Y-37640200D03*
D14*
X154083000Y-35100200D03*
%TD*%
D10*
%TO.C,J8*%
X175152250Y-84510000D03*
X163152250Y-84510000D03*
D15*
X172152250Y-82550000D03*
D16*
X169152250Y-82550000D03*
X166152250Y-82550000D03*
%TD*%
D13*
%TO.C,JP6*%
X159512000Y-37856818D03*
D14*
X159512000Y-40396818D03*
%TD*%
D13*
%TO.C,JP4*%
X154083000Y-45265200D03*
D14*
X154083000Y-42725200D03*
%TD*%
D10*
%TO.C,J4*%
X159646000Y-31093000D03*
X144646000Y-31093000D03*
D11*
X156646000Y-29133000D03*
X153646000Y-29133000D03*
X150646000Y-29133000D03*
X147646000Y-29133000D03*
%TD*%
D17*
%TO.C,D15*%
X137414000Y-55589321D03*
X137414000Y-58889321D03*
%TD*%
D18*
%TO.C,R11*%
X170287297Y-75000119D03*
X168996827Y-76290589D03*
%TD*%
D19*
%TO.C,Q2*%
X139665094Y-72414230D03*
X139205475Y-71954611D03*
X138745855Y-71494991D03*
X138286236Y-71035372D03*
D20*
X140347452Y-70353014D03*
%TD*%
D21*
%TO.C,R25*%
X158599500Y-42926000D03*
X160424500Y-42926000D03*
%TD*%
D22*
%TO.C,R33*%
X133096000Y-60136821D03*
X133096000Y-61961821D03*
%TD*%
D17*
%TO.C,D11*%
X137414000Y-40603321D03*
X137414000Y-43903321D03*
%TD*%
D22*
%TO.C,R39*%
X166624000Y-56237500D03*
X166624000Y-58062500D03*
%TD*%
D23*
%TO.C,D4*%
X143189315Y-65966831D03*
X145522767Y-68300283D03*
%TD*%
D22*
%TO.C,R15*%
X157480000Y-75763000D03*
X157480000Y-77588000D03*
%TD*%
D24*
%TO.C,R20*%
X145438500Y-43015321D03*
X143613500Y-43015321D03*
%TD*%
D22*
%TO.C,R29*%
X166624000Y-41251500D03*
X166624000Y-43076500D03*
%TD*%
D25*
%TO.C,Q3*%
X165329771Y-73117094D03*
X165789390Y-72657475D03*
X166249010Y-72197855D03*
X166708629Y-71738236D03*
D26*
X167390987Y-73799452D03*
%TD*%
D17*
%TO.C,D17*%
X170942000Y-60326000D03*
X170942000Y-63626000D03*
%TD*%
D27*
%TO.C,R27*%
X168656000Y-45108500D03*
X168656000Y-43283500D03*
%TD*%
D28*
%TO.C,R7*%
X141548119Y-67456704D03*
X142838589Y-68747174D03*
%TD*%
D21*
%TO.C,R35*%
X158599500Y-57912000D03*
X160424500Y-57912000D03*
%TD*%
D29*
%TO.C,IC1*%
X149491700Y-54546500D03*
X149491700Y-53911500D03*
X149491700Y-53276500D03*
X149491700Y-52641500D03*
X149491700Y-52006500D03*
X149491700Y-51371500D03*
X149491700Y-50736500D03*
X149491700Y-50101500D03*
X154800300Y-50101500D03*
X154800300Y-50736500D03*
X154800300Y-51371500D03*
X154800300Y-52006500D03*
X154800300Y-52641500D03*
X154800300Y-53276500D03*
X154800300Y-53911500D03*
X154800300Y-54546500D03*
%TD*%
D21*
%TO.C,R16*%
X170652750Y-97536000D03*
X172477750Y-97536000D03*
%TD*%
D30*
%TO.C,Q1*%
X138135000Y-89824000D03*
X137485000Y-89824000D03*
X136835000Y-89824000D03*
X136185000Y-89824000D03*
D31*
X137160000Y-87884000D03*
%TD*%
D22*
%TO.C,R14*%
X150876000Y-75795500D03*
X150876000Y-77620500D03*
%TD*%
D32*
%TO.C,D2*%
X135468770Y-76557522D03*
X134125267Y-77901025D03*
X133471193Y-75903448D03*
%TD*%
D30*
%TO.C,Q6*%
X175101000Y-49810818D03*
X174451000Y-49810818D03*
X173801000Y-49810818D03*
X173151000Y-49810818D03*
D31*
X174126000Y-47870818D03*
%TD*%
D30*
%TO.C,Q5*%
X141691000Y-41399321D03*
X141041000Y-41399321D03*
X140391000Y-41399321D03*
X139741000Y-41399321D03*
D31*
X140716000Y-39459321D03*
%TD*%
D17*
%TO.C,D13*%
X170942000Y-45340000D03*
X170942000Y-48640000D03*
%TD*%
D27*
%TO.C,R13*%
X148844000Y-77620500D03*
X148844000Y-75795500D03*
%TD*%
D33*
%TO.C,U2*%
X166104250Y-88760500D03*
X167374250Y-88760500D03*
X167374250Y-95135500D03*
X166104250Y-95135500D03*
%TD*%
D22*
%TO.C,R23*%
X133096000Y-45150821D03*
X133096000Y-46975821D03*
%TD*%
D34*
%TO.C,R5*%
X136754997Y-74876729D03*
X135464527Y-73586259D03*
%TD*%
D21*
%TO.C,R18*%
X165826750Y-97536000D03*
X167651750Y-97536000D03*
%TD*%
D35*
%TO.C,R9*%
X162867272Y-70206997D03*
X164157742Y-68916527D03*
%TD*%
D24*
%TO.C,R21*%
X145438500Y-45047321D03*
X143613500Y-45047321D03*
%TD*%
D33*
%TO.C,U1*%
X170930250Y-88760500D03*
X172200250Y-88760500D03*
X172200250Y-95135500D03*
X170930250Y-95135500D03*
%TD*%
D36*
%TO.C,D18*%
X164592000Y-54068000D03*
X164592000Y-56168000D03*
%TD*%
D24*
%TO.C,R30*%
X145438500Y-58001321D03*
X143613500Y-58001321D03*
%TD*%
D22*
%TO.C,R2*%
X129540000Y-86971500D03*
X129540000Y-88796500D03*
%TD*%
D36*
%TO.C,D14*%
X164592000Y-39082000D03*
X164592000Y-41182000D03*
%TD*%
D30*
%TO.C,Q8*%
X175101000Y-64796818D03*
X174451000Y-64796818D03*
X173801000Y-64796818D03*
X173151000Y-64796818D03*
D31*
X174126000Y-62856818D03*
%TD*%
D37*
%TO.C,D7*%
X171777170Y-76641315D03*
X169443718Y-78974767D03*
%TD*%
D22*
%TO.C,R34*%
X129032000Y-63184821D03*
X129032000Y-65009821D03*
%TD*%
D38*
%TO.C,D8*%
X146746000Y-77899500D03*
X144846000Y-77899500D03*
X145796000Y-76024500D03*
%TD*%
D24*
%TO.C,R17*%
X172477750Y-86487000D03*
X170652750Y-86487000D03*
%TD*%
D22*
%TO.C,R38*%
X162560000Y-52173500D03*
X162560000Y-53998500D03*
%TD*%
%TO.C,R24*%
X129032000Y-48198821D03*
X129032000Y-50023821D03*
%TD*%
%TO.C,R28*%
X162560000Y-37187500D03*
X162560000Y-39012500D03*
%TD*%
D39*
%TO.C,C1*%
X152842000Y-56388000D03*
X150942000Y-56388000D03*
%TD*%
D27*
%TO.C,R37*%
X168656000Y-60094500D03*
X168656000Y-58269500D03*
%TD*%
D30*
%TO.C,Q7*%
X141691000Y-56385321D03*
X141041000Y-56385321D03*
X140391000Y-56385321D03*
X139741000Y-56385321D03*
D31*
X140716000Y-54445321D03*
%TD*%
D21*
%TO.C,R26*%
X158599500Y-44958000D03*
X160424500Y-44958000D03*
%TD*%
D22*
%TO.C,R1*%
X131826000Y-86971500D03*
X131826000Y-88796500D03*
%TD*%
%TO.C,R32*%
X135128000Y-58104821D03*
X135128000Y-59929821D03*
%TD*%
%TO.C,R22*%
X135128000Y-43118821D03*
X135128000Y-44943821D03*
%TD*%
D21*
%TO.C,R19*%
X165826750Y-86487000D03*
X167651750Y-86487000D03*
%TD*%
%TO.C,R36*%
X158599500Y-59944000D03*
X160424500Y-59944000D03*
%TD*%
D40*
%TO.C,D5*%
X161186479Y-68920770D03*
X159842976Y-67577267D03*
X161840553Y-66923193D03*
%TD*%
D36*
%TO.C,D16*%
X131064000Y-61523321D03*
X131064000Y-63623321D03*
%TD*%
D28*
%TO.C,R6*%
X136901368Y-72149418D03*
X138191838Y-73439888D03*
%TD*%
D17*
%TO.C,D10*%
X159694000Y-75870000D03*
X159694000Y-79170000D03*
%TD*%
D41*
%TO.C,Q4*%
X152643000Y-77937000D03*
X152643000Y-77287000D03*
X152643000Y-76637000D03*
X152643000Y-75987000D03*
D42*
X154583000Y-76962000D03*
%TD*%
D36*
%TO.C,D12*%
X131064000Y-46537321D03*
X131064000Y-48637321D03*
%TD*%
D18*
%TO.C,R10*%
X165594583Y-70353368D03*
X164304113Y-71643838D03*
%TD*%
D22*
%TO.C,R3*%
X134112000Y-86971500D03*
X134112000Y-88796500D03*
%TD*%
D24*
%TO.C,R31*%
X145438500Y-60033321D03*
X143613500Y-60033321D03*
%TD*%
M02*
