M48
; DRILL file {KiCad 7.0.6} date Fri Feb  9 06:03:50 2024
; FORMAT={-:-/ absolute / inch / decimal}
; #@! TF.CreationDate,2024-02-09T06:03:50-06:00
; #@! TF.GenerationSoftware,Kicad,Pcbnew,7.0.6
; #@! TF.FileFunction,Plated,1,2,PTH
FMAT,2
INCH
; #@! TA.AperFunction,Plated,PTH,ViaDrill
T1C0.0157
; #@! TA.AperFunction,Plated,PTH,ComponentDrill
T2C0.0394
; #@! TA.AperFunction,Plated,PTH,ComponentDrill
T3C0.0402
%
G90
G05
T1
X5.1Y-3.4241
X5.1Y-3.4959
X5.19Y-3.56
X5.24Y-1.8494
X5.24Y-2.4394
X5.28Y-3.07
X5.32Y-1.6976
X5.32Y-2.2876
X5.38Y-3.41
X5.41Y-1.6
X5.41Y-2.19
X5.4957Y-1.6299
X5.4957Y-2.2199
X5.51Y-3.6
X5.5533Y-3.5963
X5.5708Y-2.7669
X5.5728Y-2.6558
X5.6274Y-2.7104
X5.6374Y-2.5971
X5.6516Y-3.5283
X5.6541Y-1.7
X5.67Y-3.76
X5.7026Y-3.0669
X5.7382Y-3.4682
X5.75Y-2.22
X5.754Y-3.699
X5.7697Y-3.43
X5.81Y-3.185
X5.8145Y-3.6388
X5.82Y-2.12
X5.8483Y-3.1268
X5.8485Y-3.4
X5.8538Y-3.6386
X5.855Y-1.925
X5.865Y-3.755
X5.8831Y-1.9647
X5.885Y-2.72
X5.885Y-3.185
X5.914Y-2.64
X5.94Y-3.0559
X5.9466Y-2.0978
X5.96Y-2.41
X5.99Y-1.7
X5.9988Y-1.78
X6.0Y-2.6
X6.0064Y-1.6626
X6.0174Y-2.22
X6.0398Y-1.985
X6.044Y-2.073
X6.0974Y-1.9647
X6.1Y-3.53
X6.12Y-3.06
X6.2Y-3.06
X6.22Y-2.22
X6.227Y-3.529
X6.34Y-3.42
X6.37Y-3.46
X6.4Y-1.5359
X6.4Y-2.1259
X6.5395Y-3.7455
X6.5931Y-2.9508
X6.6005Y-3.84
X6.64Y-1.7759
X6.64Y-2.3665
X6.6496Y-3.0074
X6.7101Y-2.9528
X6.7295Y-3.7455
X6.73Y-1.785
X6.73Y-2.375
X6.76Y-1.69
X6.76Y-2.28
X6.7629Y-3.0174
X6.7905Y-3.84
T2
X5.69Y-1.4935
X5.69Y-1.5935
X5.69Y-2.0835
X5.69Y-2.1835
X5.9063Y-1.3819
X5.9063Y-1.4819
X5.9063Y-1.6819
X5.9063Y-1.7819
X6.0663Y-1.3819
X6.0663Y-1.4819
X6.0663Y-1.6821
X6.0663Y-1.7821
X6.28Y-1.4904
X6.28Y-1.5904
X6.28Y-2.0804
X6.28Y-2.1804
T3
X5.1994Y-1.5935
X5.1994Y-2.1835
X5.1994Y-2.83
X5.2519Y-3.25
X5.2829Y-1.51
X5.2829Y-2.1
X5.2829Y-2.7464
X5.3664Y-1.4264
X5.3664Y-2.0164
X5.3664Y-2.6629
X5.37Y-3.25
X5.45Y-1.3429
X5.45Y-1.9329
X5.45Y-2.5794
X5.8128Y-1.147
X5.8128Y-2.842
X5.9309Y-1.147
X5.9309Y-2.842
X6.0491Y-1.147
X6.0491Y-2.842
X6.1672Y-1.147
X6.1672Y-2.842
X6.53Y-1.3494
X6.53Y-1.9394
X6.53Y-2.5794
X6.5414Y-3.25
X6.6136Y-1.4329
X6.6136Y-2.0229
X6.6136Y-2.6629
X6.6595Y-3.25
X6.6971Y-1.5164
X6.6971Y-2.1064
X6.6971Y-2.7464
X6.7776Y-3.25
X6.7806Y-1.6
X6.7806Y-2.19
X6.7806Y-2.83
T0
M30
