M48
; DRILL file {KiCad 7.0.6} date Fri Feb  9 06:03:50 2024
; FORMAT={-:-/ absolute / inch / decimal}
; #@! TF.CreationDate,2024-02-09T06:03:50-06:00
; #@! TF.GenerationSoftware,Kicad,Pcbnew,7.0.6
; #@! TF.FileFunction,NonPlated,1,2,NPTH
FMAT,2
INCH
; #@! TA.AperFunction,NonPlated,NPTH,ComponentDrill
T1C0.0500
; #@! TA.AperFunction,NonPlated,NPTH,ComponentDrill
T2C0.1181
%
G90
G05
T1
X5.1338Y-3.3272
X5.1705Y-1.7316
X5.1705Y-2.3216
X5.1705Y-2.968
X5.4881Y-3.3272
X5.588Y-1.314
X5.588Y-1.904
X5.588Y-2.5505
X5.6947Y-1.2241
X5.6947Y-2.9191
X6.2853Y-1.2241
X6.2853Y-2.9191
X6.392Y-1.3205
X6.392Y-1.9105
X6.392Y-2.5505
X6.4233Y-3.3272
X6.8095Y-1.738
X6.8095Y-2.328
X6.8095Y-2.968
X6.8958Y-3.3272
T2
X5.1417Y-1.1457
X5.1417Y-5.9882
X5.1634Y-4.6346
X6.7579Y-4.6346
X6.8346Y-1.1457
X6.8346Y-5.9882
T0
M30
